<!-- created by svgstack.com | Attribution is required. --><svg xmlns="http://www.w3.org/2000/svg" width="1024" height="1024" viewBox="0 0 1024 1024"><path fill="#131212" d="M510.23 115.203c25.014-1.838 105.17 99.393 17.252 133.507.086 6.466.018 12.938 0 19.404 11.63.622 32.132-3.82 35.144 12.204 3.206 17.06.15 58.648.514 77.918l109.574-.028c68.322-.29 63.788 28.4 63.794 86.618l-.012 87.152 32.462-.064c53.254-.352 65.336 14.096 65.492 66.618l-.008 40.042c-.002 50.648-.564 101.37.012 152.008 40.254.262 34.088.156 34.3 41.108.116 22.252-.91 36.166-17.486 52.848-19.086 19.212-39.778 17.312-64.582 17.292l-271.436-.026-194.46.014c-33.336 0-66.756.49-100.082-.048-49.284-.798-67.366-28.914-67.196-75.136.134-36.208-.708-37.726 36.495-36.052l-.036-193.998c-.042-49.626 14.331-64.782 64.287-64.644l32.258.038-.012-86.66c-.046-32.194-5.552-77.512 37.674-86.188 11.212-2.25 32.338-.888 44.528-.88l92.402-.014c.25-17.548-.014-35.148-.024-52.702-.018-34.294-4.054-37.588 34.434-37.42V248.71c-48.696-20.04-49.372-65.101-20.05-102.827 8.078-10.394 20.63-28.904 34.762-30.68m216.354 675.379h76.146V659.93c-23.158 13.062-29.096 23.636-58.312 23.7-38.264.08-52.604-26.08-79.182-24.76-31.594 1.57-43.774 38.166-97.314 22.748-27.748-7.99-43.876-36.464-79.984-16.856-6.384 3.468-11.99 8.254-18.384 11.758-56.408 30.914-83.726-24.02-117.672-18.316-35.464 3.748-44.614 41.524-100.594 21.252-11.148-4.038-19.036-12.96-29.792-17.488v128.614zM351.882 563.286l-79.152-.014c-12.784 0-45.446-5.308-49.89 11.144-2.97 10.992-1.006 38.868-1.344 52.082 16.626 5.542 22.468 12.446 36.274 20.502 26.158 15.262 40.41-.358 60.446-11.436 25.984-14.366 59.55-11.892 84.034 4.374 33.79 22.45 38.604 13.958 70.414-3.44 59.316-32.446 86.214 18.49 120.706 16.396 15.868-.964 24.316-9.1 37.348-16.514 37.608-20.578 59.626-6.122 90.712 10.518 36.118 19.336 50.93-12.694 81.3-20.4 0-9.222-.054-18.452.076-27.674.51-36.188-1.722-35.702-33.684-35.556l-387.424.008c-9.926-.008-19.894-.424-29.816.01m477.154 298.498c10.464-11.8 8.306-25.656 8.208-40.272l-628.824-.006c-7.656-.002-15.448-.406-23.083.006-.315 24.192 1.338 48.936 32.683 49.056l571.692-.054c14.862.102 27.594 2.392 39.324-8.73M318.774 433.508c26.976 4.224 40.228 22.04 55.29 23.638 29.496 3.13 48.116-43.148 101.188-16.264 18.804 9.526 34.076 26.318 57.158 9.458 24.144-17.636 52.538-23.964 78.874-7.472 12.642 7.918 17.742 13.976 33.59 14.67 25.04-2.33 28.544-23.238 60.116-24.03-.096-47.97 2.796-43.502-43.994-43.508l-298.366.046c-9.142-.032-20.342-.918-29.246-.04-19.622 3.154-14.522 29.574-14.61 43.502m0 32.01v66.46H704.99v-66.46c-26.192 3.284-47.488 44.81-95.082 14.458-37.204-23.728-32.872-17.94-69.11 2.26-49.682 27.696-76.194-24.164-100.024-16.718-27.634 2.394-36.938 33.692-79.896 21.774-15.73-4.364-26.62-17.094-42.104-21.774m212.49-164.826c-12.686-.032-25.434-.326-38.116 0-.244 19.124-.406 38.424 0 57.544h38.116c.042-19.172-.308-38.376 0-57.544M512.1 152.277c-9.404 10.256-25.116 29.598-24.48 43.992.58 13.099 12.396 21.463 24.48 22.761 38.214-4.464 21.958-37.498 6.964-58.13-2.134-2.933-3.936-6.513-6.964-8.623"/></svg>