<?xml version="1.0" encoding="UTF-8"?>
<svg version="1.1" xmlns="http://www.w3.org/2000/svg"  viewBox="0 0 512 512">
<path d="M0 0 C25.06505232 21.74212436 43.62197692 52.04707643 46.48095703 85.70654297 C47.60178222 104.39303779 45.552397 120.09936705 39.48095703 137.70654297 C39.48095703 138.69654297 39.48095703 139.68654297 39.48095703 140.70654297 C40.5950293 141.06780273 41.70910156 141.4290625 42.85693359 141.80126953 C66.0559313 149.32685572 89.25006653 156.86591606 112.3621521 164.65513611 C116.38129514 166.00800937 120.40651235 167.33990729 124.43907166 168.65223694 C127.45696757 169.63762862 130.46829061 170.64279756 133.48095703 171.64404297 C134.54967041 171.98540283 135.61838379 172.3267627 136.71948242 172.6784668 C137.69264404 173.00613037 138.66580566 173.33379395 139.66845703 173.67138672 C140.50763672 173.94587646 141.34681641 174.22036621 142.21142578 174.50317383 C145.43201704 176.21082167 146.58210191 177.52895998 148.48095703 180.70654297 C149.086562 184.63725863 149.02013932 188.54112628 148.9888916 192.51147461 C148.99825155 194.3256883 148.99825155 194.3256883 149.00780058 196.17655277 C149.02099828 199.53078538 149.01624477 202.88412254 149.00385571 206.2383008 C148.99481061 209.85664233 149.00877222 213.47490525 149.01977539 217.0932312 C149.03757105 224.18030082 149.03371602 231.26720109 149.02212483 238.35427737 C149.01309488 244.11356926 149.0118646 249.87281366 149.01622009 255.6321106 C149.01683302 256.45149646 149.01744596 257.27088232 149.01807746 258.11509806 C149.01935635 259.77961375 149.0206532 261.44412942 149.02196783 263.10864508 C149.03337669 278.72042449 149.02025514 294.33210999 148.99876636 309.943874 C148.98089509 323.34234976 148.98399911 336.7406869 149.00244141 350.13916016 C149.02384273 365.69469581 149.03227803 381.25014912 149.01999235 396.80569744 C149.01871814 398.4641234 149.01746066 400.12254936 149.01622009 401.78097534 C149.01529444 403.00497255 149.01529444 403.00497255 149.01435009 404.25369698 C149.01089497 410.00672668 149.01672901 415.75970421 149.02613831 421.51272583 C149.03735148 428.52283722 149.0343327 435.53276943 149.01301533 442.54286027 C149.00249559 446.12023548 148.99839848 449.69731184 149.01161194 453.27468491 C149.02571131 457.15049642 149.00888771 461.0258175 148.9888916 464.90161133 C149.00227593 466.60223016 149.00227593 466.60223016 149.01593065 468.33720493 C148.93949655 475.94293608 148.93949655 475.94293608 146.57421112 479.8818512 C143.21195681 482.81273179 140.72290086 483.06723525 136.26570511 483.00587654 C130.49218301 482.38527857 125.08726601 480.26599212 119.62695312 478.3762207 C118.24824687 477.91033915 116.86911956 477.44570209 115.48960876 476.98220825 C112.53396774 475.9864297 109.58132124 474.98237705 106.63071823 473.97176933 C101.96207708 472.37320966 97.28643006 470.79589181 92.60952759 469.22169495 C80.9991595 465.31001102 69.39909108 461.36807823 57.79925537 457.42529297 C48.77244265 454.35762692 39.74327337 451.29726983 30.70719016 448.25700337 C26.06061579 446.69270597 21.41921911 445.11414295 16.78127646 443.52444637 C13.89423771 442.53825825 11.00308447 441.56460929 8.1106739 440.59430313 C6.77337859 440.14284239 5.43781453 439.68621448 4.10420418 439.22398186 C2.27926007 438.59225265 0.44728605 437.98094283 -1.38491821 437.37059021 C-2.91737906 436.84931628 -2.91737906 436.84931628 -4.48079872 436.31751156 C-10.13351507 435.18079184 -15.17753225 436.75831175 -20.532547 438.57313538 C-21.68887131 438.96156113 -22.84519562 439.34998688 -24.03656006 439.75018311 C-25.29873644 440.18094125 -26.5608814 440.61179148 -27.82299805 441.04272461 C-29.16720352 441.49663282 -30.51160492 441.94996112 -31.85618591 442.40275574 C-34.74208185 443.37567955 -37.6267422 444.35215492 -40.5105381 445.33128548 C-45.07717287 446.88117673 -49.64754578 448.4198249 -54.21867371 449.95640564 C-67.21358246 454.32634442 -80.20439946 458.70829444 -93.18920898 463.1081543 C-100.36783941 465.54050197 -107.55004907 467.96196196 -114.73630255 470.37169737 C-119.27458888 471.89418055 -123.80813436 473.42980669 -128.33857501 474.97546971 C-131.16671585 475.93677092 -133.99902003 476.8852981 -136.83262062 477.83036995 C-138.75683205 478.47623595 -140.67600335 479.13705863 -142.59494019 479.7984314 C-155.73402657 484.14817394 -164.08783384 482.6832853 -177.0690918 478.27197266 C-178.51029655 477.79445554 -179.9519293 477.31822853 -181.39395142 476.84318542 C-185.2846301 475.55715736 -189.16882685 474.25252632 -193.0519011 472.94374371 C-197.12627978 471.57340189 -201.20579643 470.21851526 -205.28459167 468.86138916 C-212.12790586 466.58177052 -218.96712465 464.2901966 -225.80395508 461.99121094 C-233.70152277 459.33567964 -241.60497421 456.6983098 -249.51188451 454.07073855 C-257.13232058 451.53798737 -264.74873329 448.99334734 -272.36328697 446.44297028 C-275.59837407 445.35960022 -278.83475644 444.28023606 -282.07224464 443.20406342 C-285.88326096 441.93657534 -289.69061982 440.6586491 -293.49542618 439.37264442 C-294.89020209 438.90304508 -296.28617391 438.43698031 -297.68341255 437.97476006 C-299.59364813 437.34216379 -301.49914258 436.69530453 -303.40437317 436.04779053 C-304.47080457 435.69013485 -305.53723597 435.33247917 -306.63598347 434.96398544 C-310.37386352 433.33371415 -313.65439848 431.43583194 -315.51904297 427.70654297 C-315.6162776 426.09055704 -315.65003138 424.47057755 -315.65326405 422.85167217 C-315.65772189 421.81968848 -315.66217973 420.78770479 -315.66677266 419.72444886 C-315.6665883 418.58196445 -315.66640394 417.43948003 -315.66621399 416.26237488 C-315.66989068 415.05546236 -315.67356737 413.84854984 -315.67735547 412.60506421 C-315.68649447 409.24435645 -315.69109465 405.88369756 -315.69374478 402.522982 C-315.69764337 398.90256639 -315.70722197 395.28216498 -315.71595764 391.66175842 C-315.73573406 382.91351622 -315.74578949 374.16527283 -315.75468543 365.41701385 C-315.75906617 361.29987749 -315.76443351 357.18274241 -315.7696743 353.06560707 C-315.78668732 339.38391353 -315.80118246 325.7022208 -315.80842304 312.0205183 C-315.81033301 308.46883836 -315.81225334 304.91715843 -315.81420898 301.36547852 C-315.81469272 300.4826991 -315.81517646 299.59991968 -315.81567486 298.69038937 C-315.82397878 284.3834313 -315.84932144 270.07655675 -315.88178966 255.76963516 C-315.91483385 241.08955491 -315.93286938 226.40951715 -315.93606728 211.7293995 C-315.93823477 203.48356564 -315.94701828 195.23785357 -315.97252846 186.99205589 C-315.9941994 179.97091844 -316.00230372 172.94993236 -315.99256168 165.92876526 C-315.98800649 162.34531706 -315.98997323 158.76218143 -316.00932312 155.17877579 C-316.03010739 151.29627354 -316.02000315 147.41420554 -316.00679016 143.53166199 C-316.01775941 142.39586974 -316.02872865 141.26007749 -316.0400303 140.08986729 C-315.97715015 132.47023836 -315.97715015 132.47023836 -313.61355877 128.52997303 C-310.16763154 125.53003992 -307.64689023 125.4214952 -303.09224129 125.48098755 C-298.55056324 125.87909138 -294.42400464 127.34742918 -290.1340332 128.82763672 C-289.13785477 129.15925812 -288.14167633 129.49087952 -287.11531067 129.83255005 C-283.84831667 130.92362551 -280.58810814 132.03364401 -277.32763672 133.14404297 C-275.05403053 133.90751134 -272.78002201 134.66978254 -270.50563049 135.4309082 C-264.53893077 137.43122776 -258.57781707 139.44770827 -252.61773682 141.46765137 C-246.52759458 143.52846169 -240.43228749 145.5738745 -234.33740234 147.62060547 C-222.39285864 151.63423336 -210.45397864 155.66443981 -198.51904297 159.70654297 C-198.51904297 157.35343308 -199.13948182 156.00507428 -200.05810547 153.83935547 C-200.38866943 153.0454541 -200.7192334 152.25155273 -201.05981445 151.43359375 C-201.41760986 150.57491699 -201.77540527 149.71624023 -202.14404297 148.83154297 C-205.10351666 141.59169682 -207.72467188 134.32855629 -209.95654297 126.83154297 C-210.32610107 125.59428467 -210.32610107 125.59428467 -210.703125 124.33203125 C-219.24352191 94.89892206 -211.87959994 62.74997126 -197.49072266 36.45068359 C-192.18573678 26.92836724 -185.77803429 18.78304672 -178.51904297 10.70654297 C-177.74947266 9.84029297 -176.97990234 8.97404297 -176.18701172 8.08154297 C-159.74404442 -9.3978635 -138.24376617 -19.76294539 -115.51904297 -26.29345703 C-114.27380859 -26.65697266 -113.02857422 -27.02048828 -111.74560547 -27.39501953 C-73.25060716 -36.4876571 -29.87719563 -25.44027361 0 0 Z M-115.51904297 -4.29345703 C-116.65857422 -3.93123047 -117.79810547 -3.56900391 -118.97216797 -3.19580078 C-146.76531546 6.70634718 -169.75032178 26.60778239 -182.45654297 53.33154297 C-185.79682426 60.60710902 -188.64165261 67.9065565 -190.51904297 75.70654297 C-190.74205078 76.59341797 -190.96505859 77.48029297 -191.19482422 78.39404297 C-202.12369715 130.73367931 -162.39844652 184.01473651 -135.51904297 225.70654297 C-135.05062988 226.43663574 -134.5822168 227.16672852 -134.09960938 227.91894531 C-125.83655149 240.78976074 -117.35307678 253.51492451 -108.85058594 266.22827148 C-107.90541799 267.64158938 -106.96026815 269.0549194 -106.01513672 270.46826172 C-105.55075195 271.16264847 -105.08636719 271.85703522 -104.60791016 272.57246399 C-101.59026558 277.08949077 -98.59654845 281.62154739 -95.61669922 286.16357422 C-94.86990185 287.29814043 -94.12291891 288.43258454 -93.37573242 289.56689453 C-92.00022511 291.65765289 -90.63002167 293.75191303 -89.26586914 295.85009766 C-88.36251831 297.21956543 -88.36251831 297.21956543 -87.44091797 298.61669922 C-86.92110352 299.41213135 -86.40128906 300.20756348 -85.86572266 301.02709961 C-85.42131836 301.58131592 -84.97691406 302.13553223 -84.51904297 302.70654297 C-83.85904297 302.70654297 -83.19904297 302.70654297 -82.51904297 302.70654297 C-81.13115744 300.89066252 -79.83653293 299.00340524 -78.58154297 297.09326172 C-77.99325462 296.20449593 -77.99325462 296.20449593 -77.39308167 295.29777527 C-76.0952874 293.33403417 -74.80725717 291.36407912 -73.51904297 289.39404297 C-72.61732242 288.02590255 -71.71488921 286.65823159 -70.81176758 285.29101562 C-68.95338102 282.47646549 -67.09822138 279.65982735 -65.24511719 276.84179688 C-61.59460825 271.2964731 -57.89956521 265.7811289 -54.20669556 260.26397705 C0.86986123 185.62880009 0.86986123 185.62880009 25.79345703 99.08154297 C25.78854248 98.11659912 25.78362793 97.15165527 25.77856445 96.1574707 C25.64637117 88.0177541 24.65407059 80.58078035 22.48095703 72.70654297 C22.15224609 71.50126953 21.82353516 70.29599609 21.48486328 69.05419922 C16.63407474 53.05834633 8.45909092 39.23701479 -2.51904297 26.70654297 C-3.23576172 25.88798828 -3.95248047 25.06943359 -4.69091797 24.22607422 C-22.76661419 5.0291412 -49.69483333 -7.74200767 -76.08544922 -8.62939453 C-89.70897611 -8.8042409 -102.47845704 -8.44801019 -115.51904297 -4.29345703 Z M-294.51904297 150.70654297 C-294.51904297 238.15654297 -294.51904297 325.60654297 -294.51904297 415.70654297 C-286.80221299 418.82691414 -286.80221299 418.82691414 -279.00880432 421.63018799 C-278.0401796 421.9554245 -277.07155487 422.28066101 -276.07357788 422.61575317 C-274.53560043 423.12717361 -274.53560043 423.12717361 -272.96655273 423.64892578 C-271.8580043 424.02014557 -270.74945587 424.39136536 -269.60731506 424.77383423 C-265.97604684 425.98885683 -262.34333071 427.19947828 -258.71044922 428.40966797 C-256.8170805 429.04175942 -254.9237123 429.67385246 -253.03041214 430.30614924 C-247.09565729 432.28808168 -241.15985559 434.26685455 -235.22338867 436.24365234 C-229.1028091 438.28182381 -222.98409788 440.3255318 -216.86625057 442.3718884 C-211.60003378 444.13315894 -206.33266674 445.89095686 -201.06436199 447.64597201 C-197.92320152 448.69242118 -194.78263565 449.74059396 -191.64291573 450.79135895 C-188.15194575 451.95910782 -184.65913159 453.12116259 -181.16577148 454.28173828 C-180.12628357 454.63078217 -179.08679565 454.97982605 -178.01580811 455.33944702 C-177.06692215 455.65340424 -176.11803619 455.96736145 -175.14039612 456.29083252 C-174.31547448 456.56586231 -173.49055285 456.84089211 -172.64063358 457.12425613 C-170.4035479 457.83887809 -170.4035479 457.83887809 -167.51904297 457.70654297 C-167.31339881 426.7504308 -167.15428634 395.7945005 -167.059455 364.83786669 C-167.04819965 361.17698487 -167.03655065 357.51610441 -167.0246582 353.85522461 C-167.02229741 353.12645865 -167.01993662 352.39769268 -167.01750428 351.6468429 C-166.97842171 339.8715205 -166.90750524 328.09659656 -166.8246678 316.32150995 C-166.7402814 304.22467964 -166.69046728 292.12805694 -166.67224652 280.03094441 C-166.66104247 273.24208549 -166.63426722 266.45405477 -166.56747246 259.66549492 C-166.50608897 253.26716701 -166.48759818 246.87010626 -166.50107384 240.47151184 C-166.49861094 238.13147136 -166.48088325 235.79138567 -166.4461937 233.45160103 C-166.26741728 220.76400444 -166.62763087 211.12520559 -174.3394022 200.67932224 C-176.37768646 197.89933698 -177.71206128 195.31632451 -179.04638672 192.15576172 C-183.32004788 185.16550974 -191.69872705 183.74732241 -199.08154297 181.51904297 C-200.82242853 180.96410186 -202.56205524 180.40519938 -204.30053711 179.84277344 C-208.30667163 178.55006141 -212.31823814 177.275958 -216.33251953 176.00878906 C-224.75660821 173.33040448 -233.13284734 170.51212155 -241.51123047 167.69482422 C-243.08455099 167.16633243 -244.65788984 166.63789519 -246.23124695 166.10951233 C-248.60169677 165.31333792 -250.97212464 164.51709852 -253.34247875 163.72063923 C-261.07270623 161.12348027 -268.80452665 158.53119283 -276.54188919 155.95535851 C-277.95419827 155.48464152 -279.36613701 155.01281181 -280.77769089 154.53983498 C-282.72040958 153.88900278 -284.664491 153.24224248 -286.60864258 152.59570312 C-287.70631454 152.22933746 -288.80398651 151.8629718 -289.93492126 151.48550415 C-292.38836236 150.6103384 -292.38836236 150.6103384 -294.51904297 150.70654297 Z M29.48095703 159.70654297 C29.16046387 160.36847656 28.8399707 161.03041016 28.50976562 161.71240234 C20.02649411 179.15307232 11.25812026 196.54079812 0.48095703 212.70654297 C0.29158722 215.43015345 0.220136 218.05048147 0.240448 220.77397156 C0.23873915 221.60549596 0.2370303 222.43702036 0.23526967 223.29374248 C0.23196615 226.0898766 0.24299262 228.88577262 0.25390625 231.68188477 C0.25447018 233.68230178 0.25415417 235.68271921 0.25302124 237.68313599 C0.25244601 243.12290355 0.2642279 248.56258341 0.27816916 254.00233054 C0.29064812 259.68382561 0.29184477 265.36532256 0.29421997 271.04682922 C0.30044309 281.80966123 0.31686514 292.57245274 0.33691895 303.33526689 C0.3592521 315.5866092 0.37026487 327.83795341 0.38030982 340.089311 C0.40123065 365.29507747 0.43642276 390.50080795 0.48095703 415.70654297 C32.10777681 426.53377216 32.10777681 426.53377216 63.78955078 437.19873047 C65.60947353 437.8064519 67.42938385 438.41421059 69.24928284 439.02200317 C72.95011039 440.25755032 76.65131294 441.49196566 80.3527832 442.72558594 C85.09765466 444.30717486 89.84109964 445.89300135 94.58427334 447.47967339 C98.2902967 448.71869637 101.99721096 449.95503589 105.70439339 451.19058609 C107.4586612 451.77573421 109.2126064 452.36185045 110.96621513 452.94897079 C113.37441275 453.75494183 115.78382702 454.55716269 118.19360352 455.35839844 C118.90746216 455.59822449 119.6213208 455.83805054 120.35681152 456.08514404 C123.8439424 457.29584997 123.8439424 457.29584997 127.48095703 457.70654297 C127.48095703 370.25654297 127.48095703 282.80654297 127.48095703 192.70654297 C116.75526527 188.55927595 116.75526527 188.55927595 105.90283203 184.86669922 C104.33283225 184.3625073 102.76284586 183.85827371 101.19287109 183.35400391 C100.38434692 183.09582886 99.57582275 182.83765381 98.74279785 182.57165527 C81.21333827 176.97044048 63.7796323 171.11103398 46.38232422 165.11303711 C45.54568237 164.82511795 44.70904053 164.53719879 43.8470459 164.24055481 C42.28536241 163.70280028 40.72420883 163.16350334 39.16369629 162.62236023 C35.95704946 161.51755286 32.77861553 160.49653498 29.48095703 159.70654297 Z M-146.51904297 247.70654297 C-146.51904297 317.00654297 -146.51904297 386.30654297 -146.51904297 457.70654297 C-138.13373314 455.45698044 -138.13373314 455.45698044 -129.87509155 452.90988159 C-128.90220184 452.5874649 -127.92931213 452.26504822 -126.92694092 451.93286133 C-125.90207581 451.58989014 -124.87721069 451.24691895 -123.82128906 450.89355469 C-122.1534285 450.33935349 -122.1534285 450.33935349 -120.45187378 449.7739563 C-116.81440423 448.56437676 -113.1783984 447.35046536 -109.54248047 446.13623047 C-107.00474777 445.29076897 -104.46695653 444.44548486 -101.92910767 443.60037231 C-96.6313803 441.83567036 -91.33449396 440.06846212 -86.03808594 438.29980469 C-79.91166989 436.25402096 -73.78381026 434.21260773 -67.65520418 432.17339504 C-62.381238 430.41842648 -57.10805094 428.66113258 -51.83551466 426.90187275 C-48.69105195 425.85267865 -45.54624656 424.80453545 -42.40089035 423.75802231 C-38.90723749 422.59515409 -35.41487956 421.42847913 -31.92285156 420.26074219 C-30.87774414 419.91372253 -29.83263672 419.56670288 -28.75585938 419.20916748 C-27.81116791 418.89239044 -26.86647644 418.5756134 -25.89315796 418.24923706 C-25.06769156 417.97383024 -24.24222515 417.69842342 -23.39174461 417.41467094 C-21.53452718 416.85912865 -21.53452718 416.85912865 -20.51904297 415.70654297 C-20.42208979 413.54228123 -20.39717532 411.37479044 -20.39878845 409.20835876 C-20.39793403 408.52146754 -20.3970796 407.83457632 -20.39619929 407.12687021 C-20.39454252 404.80826841 -20.40006903 402.48973779 -20.40551758 400.17114258 C-20.40579943 398.51584373 -20.40564175 396.86054475 -20.40507507 395.20524597 C-20.40478703 390.69717364 -20.41068478 386.18912768 -20.41764903 381.68106151 C-20.42388152 376.9751656 -20.42448628 372.26926915 -20.42567444 367.56336975 C-20.42878807 358.64565663 -20.43700187 349.7279557 -20.44702393 340.81024796 C-20.45818409 330.66048 -20.46369527 320.51071147 -20.46871936 310.36093891 C-20.47918446 289.47613344 -20.49678451 268.59133897 -20.51904297 247.70654297 C-23.79992239 251.78303804 -23.79992239 251.78303804 -26.81591797 256.05419922 C-27.41919922 256.96395508 -27.41919922 256.96395508 -28.03466797 257.89208984 C-28.44201172 258.51148438 -28.84935547 259.13087891 -29.26904297 259.76904297 C-30.07625186 260.98914982 -30.88354665 262.20919984 -31.69091797 263.42919922 C-32.135 264.10160645 -32.57908203 264.77401367 -33.03662109 265.46679688 C-35.76664173 269.59150196 -38.51484819 273.70409879 -41.2598877 277.81881714 C-43.74286771 281.54130126 -46.22457505 285.26463399 -48.70654297 288.98779297 C-49.82893407 290.67138987 -50.95132998 292.35498358 -52.07373047 294.03857422 C-52.92402832 295.314021 -52.92402832 295.314021 -53.79150391 296.61523438 C-55.51578776 299.20166016 -57.24007161 301.78808594 -58.96435547 304.37451172 C-59.52429199 305.21473877 -60.08422852 306.05496582 -60.66113281 306.9206543 C-61.76442073 308.57494116 -62.86889078 310.22844031 -63.97460938 311.88110352 C-66.33547772 315.41226423 -68.68487971 318.94749673 -70.97216797 322.52685547 C-72.01630859 324.14720703 -72.01630859 324.14720703 -73.08154297 325.80029297 C-73.66033203 326.71488281 -74.23912109 327.62947266 -74.83544922 328.57177734 C-76.6228476 330.83816531 -77.82840322 331.73225377 -80.51904297 332.70654297 C-85.26120812 333.21102862 -87.72770289 332.56549422 -91.51904297 329.70654297 C-93.49919097 327.13625138 -95.11658694 324.37027723 -96.76904297 321.58154297 C-101.56314148 313.74445191 -106.57446388 306.09653777 -111.76904297 298.51904297 C-117.5635464 290.04819838 -123.32589539 281.55842727 -129.01904297 273.01904297 C-129.68202393 272.02493408 -130.34500488 271.0308252 -131.02807617 270.0065918 C-135.44412372 263.36661935 -139.77719643 256.68026421 -144.01513672 249.92529297 C-144.51142578 249.19310547 -145.00771484 248.46091797 -145.51904297 247.70654297 C-145.84904297 247.70654297 -146.17904297 247.70654297 -146.51904297 247.70654297 Z " fill="currentColor" transform="translate(339.51904296875,29.29345703125)"/>
<path d="M0 0 C2.50384855 2.18313956 4.83792242 4.45374692 7.15625 6.83203125 C8.30867188 7.93611328 8.30867188 7.93611328 9.484375 9.0625 C23.30476184 23.09442337 27.69163591 40.66098608 27.57421875 59.83374023 C27.1099556 78.48696321 20.20906338 94.96713031 7.0078125 108.1796875 C-5.41254569 119.73232204 -20.70262179 127.79412807 -37.84375 128.83203125 C-39.12958984 128.91130859 -39.12958984 128.91130859 -40.44140625 128.9921875 C-60.70502274 129.61945961 -78.1094577 122.69192848 -93.41796875 109.63671875 C-101.89864884 101.60239024 -107.66135243 91.67868867 -111.84375 80.83203125 C-112.32521484 79.58679688 -112.32521484 79.58679688 -112.81640625 78.31640625 C-117.41397242 63.68973061 -116.71945405 44.96170051 -110.84375 30.83203125 C-110.369375 29.66671875 -109.895 28.50140625 -109.40625 27.30078125 C-105.30693066 18.23497885 -99.90953879 11.71322759 -92.84375 4.83203125 C-92.15152344 4.14238281 -91.45929688 3.45273438 -90.74609375 2.7421875 C-66.17480448 -20.31546999 -26.0956366 -19.89433834 0 0 Z M-82.76953125 24.171875 C-92.66541789 36.86320985 -95.16069898 51.16000153 -93.84375 66.83203125 C-91.41349084 79.94378877 -83.55687642 91.092344 -72.84375 98.83203125 C-60.13387916 106.46379067 -47.64587799 109.93676384 -32.96875 106.70703125 C-17.45306235 102.41037929 -6.4439599 93.99406642 1.52734375 80 C7.51551042 68.35394924 8.42132736 53.85124588 4.53125 41.26953125 C-1.28821098 26.71074036 -10.64419101 16.60158844 -24.84375 9.83203125 C-45.39395823 1.31490955 -67.86785951 8.57461356 -82.76953125 24.171875 Z " fill="currentColor" transform="translate(299.84375,71.16796875)"/>
</svg>
