<svg version="1.1" id="Layer_1" xmlns="http://www.w3.org/2000/svg" xmlns:xlink="http://www.w3.org/1999/xlink" x="0px" y="0px"
	 width="100%" viewBox="0 0 86 86" enable-background="new 0 0 86 86" xml:space="preserve">
<path opacity="1.000000" stroke="none" 
	d="
M68.000000,87.000000 
	C55.979103,87.000000 43.958210,87.000000 31.326097,86.674698 
	C27.256197,84.834747 26.157642,82.071846 25.940277,78.437035 
	C25.439117,70.056580 24.651941,61.692467 23.928421,53.326256 
	C22.978741,42.344940 21.803877,31.379597 21.073338,20.384296 
	C20.702820,14.807653 22.783279,13.019197 28.385029,13.006609 
	C38.364944,12.984181 48.344940,13.000303 58.249374,13.000303 
	C59.902515,8.824390 61.451260,4.912195 63.000000,1.000000 
	C67.024544,1.000000 71.049088,1.000000 75.662140,1.355816 
	C77.329376,6.371345 76.379128,7.720525 71.822502,7.998784 
	C67.310318,8.274330 67.310318,8.274329 67.122192,12.848714 
	C78.533623,12.681177 78.313461,15.263775 78.004631,24.345482 
	C77.959442,25.674479 78.067894,27.013638 77.951302,28.334507 
	C76.651123,43.063530 75.458084,57.804207 73.925301,72.509338 
	C73.374275,77.795792 74.130188,83.883125 68.000000,87.000000 
M70.049072,30.998932 
	C70.365990,29.074572 70.706490,27.153742 70.995140,25.225151 
	C71.684883,20.616693 70.115685,18.649733 65.051826,18.890114 
	C56.571297,19.292685 48.057762,19.000025 39.558117,19.000008 
	C26.568054,18.999979 26.566305,19.000347 29.129255,31.873589 
	C29.174242,32.099537 29.432915,32.282940 29.087212,31.840910 
	C32.920341,31.170259 36.724247,29.274605 39.517826,30.255714 
	C46.754272,32.797173 53.439812,31.976774 60.567120,30.212183 
	C63.388672,29.513618 66.797226,31.185995 70.049072,30.998932 
z"/>
<path fill="#FFFFFF" opacity="1.000000" stroke="none" 
	d="
M62.531342,1.000000 
	C61.451260,4.912195 59.902515,8.824390 58.249374,13.000303 
	C48.344940,13.000303 38.364944,12.984181 28.385029,13.006609 
	C22.783279,13.019197 20.702820,14.807653 21.073338,20.384296 
	C21.803877,31.379597 22.978741,42.344940 23.928421,53.326256 
	C24.651941,61.692467 25.439117,70.056580 25.940277,78.437035 
	C26.157642,82.071846 27.256197,84.834747 30.857441,86.674698 
	C21.032618,87.000000 11.065235,87.000000 1.060003,87.000000 
	C1.060003,58.333309 1.060003,29.666639 1.060003,1.000000 
	C7.100421,1.000000 13.080834,1.000000 19.378944,1.326820 
	C12.050958,4.038243 7.426662,10.397544 6.924169,17.946547 
	C6.238147,28.252703 10.541964,34.825001 19.159081,37.699814 
	C18.764650,31.778202 18.138697,26.053167 18.066854,20.321190 
	C17.986990,13.948895 22.203489,10.028524 28.557703,10.003518 
	C32.948280,9.986239 37.338978,10.000199 41.729622,10.000199 
	C41.938702,9.455255 42.147781,8.910310 42.356857,8.365365 
	C38.904572,5.910244 35.452286,3.455122 32.000000,1.000000 
	C42.020893,1.000000 52.041790,1.000000 62.531342,1.000000 
z"/>
<path fill="#FFFFFF" opacity="1.000000" stroke="none" 
	d="
M68.469376,87.000000 
	C74.130188,83.883125 73.374275,77.795792 73.925301,72.509338 
	C75.458084,57.804207 76.651123,43.063530 77.951302,28.334507 
	C78.067894,27.013638 77.959442,25.674479 78.004631,24.345482 
	C78.313461,15.263775 78.533623,12.681177 67.122192,12.848714 
	C67.310318,8.274329 67.310318,8.274330 71.822502,7.998784 
	C76.379128,7.720525 77.329376,6.371345 76.125320,1.355816 
	C79.652740,1.000000 83.305473,1.000000 86.979111,1.000000 
	C86.979111,29.543829 86.979111,58.087677 86.979111,87.000000 
	C80.984596,87.000000 74.961670,87.000000 68.469376,87.000000 
z"/>
<path fill="#808184" opacity="1.000000" stroke="none" 
	d="
M31.539364,1.000000 
	C35.452286,3.455122 38.904572,5.910244 42.356857,8.365365 
	C42.147781,8.910310 41.938702,9.455255 41.729622,10.000199 
	C37.338978,10.000199 32.948280,9.986239 28.557703,10.003518 
	C22.203489,10.028524 17.986990,13.948895 18.066854,20.321190 
	C18.138697,26.053167 18.764650,31.778202 19.159081,37.699814 
	C10.541964,34.825001 6.238147,28.252703 6.924169,17.946547 
	C7.426662,10.397544 12.050958,4.038243 19.848320,1.326820 
	C23.692909,1.000000 27.385818,1.000000 31.539364,1.000000 
z"/>
<path fill="#FFFFFF" opacity="1.000000" stroke="none" 
	d="
M69.993790,31.388893 
	C66.797226,31.185995 63.388672,29.513618 60.567120,30.212183 
	C53.439812,31.976774 46.754272,32.797173 39.517826,30.255714 
	C36.724247,29.274605 32.920341,31.170259 29.087212,31.840910 
	C29.432915,32.282940 29.174242,32.099537 29.129255,31.873589 
	C26.566305,19.000347 26.568054,18.999979 39.558117,19.000008 
	C48.057762,19.000025 56.571297,19.292685 65.051826,18.890114 
	C70.115685,18.649733 71.684883,20.616693 70.995140,25.225151 
	C70.706490,27.153742 70.365990,29.074572 69.993790,31.388893 
z"/>
</svg>